<svg width="40" height="40" viewBox="0 0 40 40" fill="none" xmlns="http://www.w3.org/2000/svg">
<g clip-path="url(#clip0_7609_3875)">
<path d="M20 0.0626221C8.94667 0.0626221 0 9.0078 0 20.0626C0.968235 46.5651 39.035 46.5596 40 20.0624C40 9.00929 31.0548 0.0626221 20 0.0626221ZM20 31.8273C13.5129 31.8273 8.23529 26.5497 8.23529 20.0626C8.82675 4.47658 31.1756 4.48082 31.7647 20.0628C31.7647 26.5497 26.4871 31.8273 20 31.8273ZM29.111 9.28788C26.9312 7.44184 24.1866 6.24388 21.1765 5.99431V2.45564C25.1584 2.71901 28.7833 4.30858 31.6126 6.78631L29.111 9.28788ZM18.8235 5.99431C15.8134 6.24388 13.0688 7.44176 10.889 9.2878L8.38745 6.78631C11.2167 4.30858 14.8416 2.71909 18.8235 2.45564V5.99431ZM9.22526 10.9516C7.37922 13.1314 6.18133 15.876 5.93176 18.8862H2.3931C2.65655 14.9042 4.24604 11.2793 6.72376 8.45015L9.22526 10.9516ZM5.93176 21.2391C6.18133 24.2492 7.37922 26.9938 9.22526 29.1736L6.72369 31.675C4.24588 28.8458 2.65655 25.221 2.39302 21.239H5.93176V21.2391ZM10.889 30.8374C13.0687 32.6834 15.8134 33.8814 18.8235 34.1309V37.6695C14.8416 37.4062 11.2167 35.8166 8.38745 33.3388L10.889 30.8374ZM21.1765 34.1309C24.1866 33.8813 26.9313 32.6834 29.111 30.8374L31.6126 33.3389C28.7834 35.8167 25.1584 37.4062 21.1765 37.6696V34.1309ZM30.7747 29.1736C32.6208 26.9938 33.8187 24.2492 34.0682 21.2391H37.6069C37.3435 25.2211 35.754 28.8458 33.2762 31.6751L30.7747 29.1736ZM34.0682 18.8862C33.8187 15.876 32.6208 13.1314 30.7747 10.9516L33.2763 8.45007C35.754 11.2792 37.3435 14.9042 37.607 18.8861H34.0682V18.8862Z" fill="#2D5A61"/>
<path d="M21.1765 15.3246V12.2623H18.8236V15.3245C15.1499 14.9326 12.3759 18.8455 14.1858 22.2289C14.5029 22.8222 19.422 27.5157 20 28.0899C20.5208 27.5728 25.4957 22.8248 25.8143 22.2289V22.229C27.622 18.8495 24.8544 14.9323 21.1765 15.3246ZM23.7809 21.0381C23.4261 21.4402 21.7355 23.1175 20 24.8099C18.2646 23.1175 16.574 21.4402 16.2192 21.0381C15.7866 20.1464 15.967 19.052 16.6725 18.3466C17.3994 17.6196 18.5394 17.4503 19.4451 17.9346L20 18.2314L20.5549 17.9346C22.5601 16.8765 24.7594 18.9983 23.7809 21.0381Z" fill="#2D5A61"/>
</g>
<defs>
<clipPath id="clip0_7609_3875">
<rect width="40" height="40" fill="white"/>
</clipPath>
</defs>
</svg>
