<svg width="42" height="42" viewBox="0 0 42 42" fill="none" xmlns="http://www.w3.org/2000/svg">
<path d="M22.7714 8.96276C22.6258 8.79496 22.4459 8.66039 22.2438 8.56817C22.0417 8.47595 21.8221 8.42822 21.5999 8.42822C21.3778 8.42822 21.1582 8.47595 20.9561 8.56817C20.754 8.66039 20.574 8.79496 20.4284 8.96276L8.42843 23.9628C8.25177 24.1834 8.14105 24.4495 8.10903 24.7303C8.077 25.0111 8.12497 25.2953 8.24741 25.55C8.36984 25.8048 8.56177 26.0198 8.80106 26.1702C9.04036 26.3206 9.31728 26.4004 9.59993 26.4003H15.5999V35.4003C15.5999 36.9916 16.2321 38.5177 17.3573 39.6429C18.4825 40.7681 20.0086 41.4003 21.5999 41.4003C23.1912 41.4003 24.7174 40.7681 25.8426 39.6429C26.9678 38.5177 27.5999 36.9916 27.5999 35.4003V26.4003H33.5999C33.8826 26.4004 34.1595 26.3206 34.3988 26.1702C34.6381 26.0198 34.83 25.8048 34.9525 25.55C35.0749 25.2953 35.1229 25.0111 35.0908 24.7303C35.0588 24.4495 34.9481 24.1834 34.7714 23.9628L22.7714 8.96276ZM26.0999 23.4003C25.7021 23.4003 25.3206 23.5583 25.0393 23.8396C24.758 24.1209 24.5999 24.5024 24.5999 24.9003V35.4003C24.5999 36.1959 24.2839 36.959 23.7212 37.5216C23.1586 38.0842 22.3956 38.4003 21.5999 38.4003C20.8043 38.4003 20.0412 38.0842 19.4786 37.5216C18.916 36.959 18.5999 36.1959 18.5999 35.4003V24.9003C18.5999 24.5024 18.4419 24.1209 18.1606 23.8396C17.8793 23.5583 17.4978 23.4003 17.0999 23.4003H12.7214L21.5999 12.3003L30.4784 23.4003H26.0999Z" fill="white"/>
<path d="M10.7713 18.3373L21.5998 4.79981L32.4283 18.3358C32.6769 18.6465 33.0388 18.8457 33.4343 18.8896C33.8299 18.9335 34.2266 18.8185 34.5373 18.5698C34.848 18.3212 35.0472 17.9593 35.0911 17.5638C35.135 17.1683 35.0199 16.7715 34.7713 16.4608L22.7713 1.46081C22.6257 1.29301 22.4458 1.15844 22.2437 1.06622C22.0415 0.973996 21.822 0.92627 21.5998 0.92627C21.3776 0.92627 21.1581 0.973996 20.956 1.06622C20.7538 1.15844 20.5739 1.29301 20.4283 1.46081L8.42831 16.4608C8.17967 16.7715 8.06464 17.1683 8.10852 17.5638C8.15241 17.9593 8.35161 18.3212 8.66231 18.5698C8.97301 18.8185 9.36976 18.9335 9.76527 18.8896C10.1608 18.8457 10.5227 18.6465 10.7713 18.3358V18.3373Z" fill="white"/>
</svg>
